<?xml version="1.0"?>
<svg xmlns="http://www.w3.org/2000/svg" viewBox="0 0 64 64" width="512" height="512"><g id="Outline"><g><path d="M61,25a1,1,0,0,0,1-1V18a1,1,0,0,0-1-1H54V15h3a1,1,0,0,0,1-1V8a1,1,0,0,0-1-1H54V4h3a1,1,0,0,0,0-2H7A1,1,0,0,0,6,3V7H5a3,3,0,0,0,0,6H6v5H5a3,3,0,0,0,0,6h6a3,3,0,0,0,0-6H8V13h3a3,3,0,0,0,0-6H8V4H48V60H8V57h3a3,3,0,0,0,0-6H8V49a1,1,0,0,0-2,0v2H5a3,3,0,0,0,0,6H6v4a1,1,0,0,0,1,1H57a1,1,0,0,0,1-1V48a1,1,0,0,0-2,0V60H54V45h7a1,1,0,0,0,1-1V38a1,1,0,0,0-1-1H58V35h3a1,1,0,0,0,1-1V28a1,1,0,0,0-1-1H58V25ZM12,21a1,1,0,0,1-1,1H5a1,1,0,0,1,0-2h6A1,1,0,0,1,12,21Zm0-11a1,1,0,0,1-1,1H5A1,1,0,0,1,5,9h6A1,1,0,0,1,12,10ZM4,54a1,1,0,0,1,1-1h6a1,1,0,0,1,0,2H5A1,1,0,0,1,4,54ZM60,19v4H54V19Zm-4-6H50V9h6ZM52,7H50V4h2ZM50,60V15h2V60ZM60,43H54V39h6Zm0-14v4H58V29Zm-4,8H54V25h2Z"/><path d="M5,40a3,3,0,0,0,0,6h6a3,3,0,0,0,0-6H8V35h3a3,3,0,0,0,0-6H8V27a1,1,0,0,0-2,0v2H5a3,3,0,0,0,0,6H6v5ZM4,32a1,1,0,0,1,1-1h6a1,1,0,0,1,0,2H5A1,1,0,0,1,4,32Zm8,11a1,1,0,0,1-1,1H5a1,1,0,0,1,0-2h6A1,1,0,0,1,12,43Z"/><path d="M31,21a3,3,0,0,1,3,3,1,1,0,0,0,2,0,5,5,0,0,0-5-5,1,1,0,0,0,0,2Z"/><path d="M31,17a7,7,0,0,1,7,7,1,1,0,0,0,2,0,9,9,0,0,0-9-9,1,1,0,0,0,0,2Z"/><path d="M31,12A12,12,0,0,1,43,24a1,1,0,0,0,2,0A14,14,0,0,0,31,10a1,1,0,0,0,0,2Z"/><path d="M27.11,20.41a3.36,3.36,0,0,0,0-4.72L25.46,14a3.42,3.42,0,0,0-4.72,0l-1.65,1.65a10.35,10.35,0,0,0,0,14.62l6.6,6.6a10.36,10.36,0,0,0,14.62,0L42,35.26a3.36,3.36,0,0,0,0-4.72l-1.65-1.65a3.42,3.42,0,0,0-4.72,0l-1.65,1.65a1.33,1.33,0,0,1-1.88,0A1,1,0,0,0,30.64,32a3.34,3.34,0,0,0,4.72,0L37,30.31a1.33,1.33,0,0,1,1.88,0L40.54,32a1.33,1.33,0,0,1,0,1.88l-1.65,1.65a8.34,8.34,0,0,1-11.78,0l-6.6-6.6a8.34,8.34,0,0,1,0-11.78l1.65-1.65a1.33,1.33,0,0,1,1.88,0l1.65,1.65a1.33,1.33,0,0,1,0,1.88L24,20.64a3.34,3.34,0,0,0,0,4.72l4,4A1,1,0,1,0,29.46,28l-4-4a1.33,1.33,0,0,1,0-1.88Z"/><path d="M40,47a1,1,0,0,0,0-2H20a1,1,0,0,0-1,1v4a1,1,0,0,0,1,1H40a1,1,0,0,0,0-2H21V47Z"/><path d="M21,53a1,1,0,0,0,0,2H35a1,1,0,0,0,0-2Z"/></g></g></svg>
