<svg id="menu" xmlns="http://www.w3.org/2000/svg" width="40.5" height="40.5" viewBox="0 0 40.5 40.5">
  <path id="Tracé_266" data-name="Tracé 266" d="M20.25,0A20.25,20.25,0,1,0,40.5,20.25,20.273,20.273,0,0,0,20.25,0Zm0,39.054a18.8,18.8,0,1,1,18.8-18.8A18.825,18.825,0,0,1,20.25,39.054Z" fill="#fff"/>
  <path id="Tracé_267" data-name="Tracé 267" d="M33.08,16H15.723a.723.723,0,1,0,0,1.446H33.08a.723.723,0,0,0,0-1.446Z" transform="translate(-4.152 -4.429)" fill="#fff"/>
  <path id="Tracé_268" data-name="Tracé 268" d="M33.08,27H15.723a.723.723,0,1,0,0,1.446H33.08a.723.723,0,0,0,0-1.446Z" transform="translate(-4.152 -7.473)" fill="#fff"/>
  <path id="Tracé_269" data-name="Tracé 269" d="M33.08,38H15.723a.723.723,0,1,0,0,1.446H33.08a.723.723,0,0,0,0-1.446Z" transform="translate(-4.152 -10.518)" fill="#fff"/>
</svg>